<svg xmlns="http://www.w3.org/2000/svg" viewBox="0 0 64 64">
  <defs>
    <linearGradient id="g" x1="0" y1="0" x2="64" y2="64" gradientUnits="userSpaceOnUse">
      <stop offset="0" stop-color="#7e4dff"/>
      <stop offset="1" stop-color="#2dd4bf"/>
    </linearGradient>
  </defs>
  <rect width="64" height="64" rx="14" fill="url(#g)"/>
  <path d="M20 22c0-4 3-7 7-7 2 0 4 1 5 3 1-2 3-3 5-3 4 0 7 3 7 7 0 2-1 4-2 5 2 1 3 3 3 6 0 4-3 7-7 7-2 0-4-1-5-3v7h-2v-7c-1 2-3 3-5 3-4 0-7-3-7-7 0-3 1-5 3-6-1-1-2-3-2-5z" fill="#fff" fill-opacity=".95"/>
</svg>
